<svg 
 xmlns="http://www.w3.org/2000/svg"
 xmlns:xlink="http://www.w3.org/1999/xlink"
 width="1698px" height="425px">
<path fill-rule="evenodd"  fill="rgb(0, 0, 0)"
 d="M1679.298,157.514 L1651.173,227.046 L1672.658,227.046 C1689.064,227.046 1697.267,232.777 1697.267,244.233 C1697.267,252.177 1694.337,258.393 1688.478,262.885 C1682.619,267.378 1674.544,269.624 1664.259,269.624 L1639.259,269.624 C1628.059,269.624 1620.442,265.263 1616.408,256.538 C1606.642,265.263 1597.200,269.624 1588.087,269.624 L1565.822,269.624 C1551.497,269.624 1539.943,264.515 1531.154,254.292 C1522.365,244.071 1517.970,230.692 1517.970,214.155 C1517.970,189.155 1526.594,166.792 1543.849,147.065 C1561.101,127.339 1580.598,117.475 1602.345,117.475 C1619.011,117.475 1631.184,123.271 1638.869,134.858 C1645.378,125.092 1653.908,120.210 1664.454,120.210 C1670.183,120.210 1674.968,122.035 1678.810,125.678 C1682.649,129.325 1684.572,133.817 1684.572,139.155 C1684.572,142.802 1683.528,147.163 1681.447,152.241 L1679.298,157.514 ZM1617.677,160.835 C1614.226,158.232 1610.090,156.928 1605.275,156.928 C1595.769,156.928 1586.525,162.464 1577.540,173.530 C1568.556,184.599 1564.064,196.058 1564.064,207.905 C1564.064,221.317 1569.465,228.022 1580.275,228.022 L1585.158,228.022 C1595.833,228.022 1602.931,223.661 1606.447,214.936 L1620.119,181.147 C1621.940,176.722 1622.853,173.011 1622.853,170.014 C1622.853,166.499 1621.126,163.441 1617.677,160.835 ZM1489.454,112.202 C1481.901,112.202 1475.490,109.565 1470.216,104.292 C1464.943,99.018 1462.306,92.607 1462.306,85.053 C1462.306,77.503 1464.943,71.089 1470.216,65.815 C1475.490,60.542 1481.901,57.905 1489.454,57.905 C1497.004,57.905 1503.419,60.542 1508.693,65.815 C1513.966,71.089 1516.603,77.503 1516.603,85.053 C1516.603,92.607 1513.966,99.018 1508.693,104.292 C1503.419,109.565 1497.004,112.202 1489.454,112.202 ZM1476.759,120.210 C1482.228,120.210 1486.946,122.035 1490.919,125.678 C1494.890,129.325 1496.876,133.686 1496.876,138.764 C1496.876,142.933 1495.119,149.311 1491.603,157.905 L1463.673,227.046 L1485.744,227.046 C1502.150,227.046 1510.353,232.841 1510.353,244.428 C1510.353,252.372 1507.454,258.558 1501.661,262.983 C1495.866,267.411 1487.761,269.624 1477.345,269.624 L1446.290,269.624 C1434.831,269.624 1425.813,267.280 1419.240,262.592 C1412.663,257.905 1409.376,251.527 1409.376,243.452 C1409.376,239.155 1410.744,233.686 1413.478,227.046 L1445.704,147.749 L1447.853,142.280 C1453.840,127.567 1463.478,120.210 1476.759,120.210 ZM1431.251,37.788 L1354.494,227.046 L1376.759,227.046 C1393.294,227.046 1401.564,232.841 1401.564,244.428 C1401.564,252.372 1398.634,258.558 1392.775,262.983 C1386.915,267.411 1378.840,269.624 1368.556,269.624 L1342.189,269.624 C1332.033,269.624 1324.611,265.458 1319.923,257.124 C1311.589,265.458 1302.669,269.624 1293.165,269.624 L1268.361,269.624 C1253.908,269.624 1242.351,264.677 1233.693,254.780 C1225.032,244.886 1220.704,231.733 1220.704,215.327 C1220.704,190.199 1229.265,167.607 1246.388,147.553 C1263.508,127.503 1282.747,117.475 1304.103,117.475 C1319.856,117.475 1332.423,123.139 1341.798,134.467 L1385.353,27.632 C1392.775,9.403 1403.126,0.288 1416.408,0.288 C1422.005,0.288 1426.759,2.079 1430.665,5.659 C1434.572,9.242 1436.525,13.636 1436.525,18.842 C1436.525,22.880 1435.548,27.436 1433.595,32.514 L1431.251,37.788 ZM1320.607,161.030 C1317.286,158.296 1313.151,156.928 1308.204,156.928 C1298.048,156.928 1288.576,162.592 1279.786,173.921 C1270.997,185.249 1266.603,197.489 1266.603,210.639 C1266.603,222.230 1272.072,228.022 1283.009,228.022 L1290.431,228.022 C1299.415,228.022 1305.339,224.442 1308.204,217.280 L1322.853,181.147 C1324.675,176.722 1325.587,173.335 1325.587,170.991 C1325.587,167.085 1323.927,163.764 1320.607,161.030 ZM1212.892,244.233 C1212.892,252.177 1209.962,258.393 1204.103,262.885 C1198.244,267.378 1190.169,269.624 1179.884,269.624 L1154.884,269.624 C1143.684,269.624 1136.067,265.263 1132.033,256.538 C1122.267,265.263 1112.825,269.624 1103.712,269.624 L1081.447,269.624 C1067.122,269.624 1055.568,264.515 1046.779,254.292 C1037.990,244.071 1033.595,230.692 1033.595,214.155 C1033.595,189.155 1042.219,166.792 1059.474,147.065 C1076.726,127.339 1096.223,117.475 1117.970,117.475 C1134.636,117.475 1146.809,123.271 1154.494,134.858 C1161.003,125.092 1169.533,120.210 1180.079,120.210 C1185.808,120.210 1190.593,122.035 1194.435,125.678 C1198.274,129.325 1200.197,133.817 1200.197,139.155 C1200.197,142.802 1199.153,147.163 1197.072,152.241 L1194.923,157.514 L1166.798,227.046 L1188.283,227.046 C1204.689,227.046 1212.892,232.777 1212.892,244.233 ZM1133.302,160.835 C1129.851,158.232 1125.715,156.928 1120.900,156.928 C1111.394,156.928 1102.150,162.464 1093.165,173.530 C1084.181,184.599 1079.689,196.058 1079.689,207.905 C1079.689,221.317 1085.090,228.022 1095.900,228.022 L1100.783,228.022 C1111.458,228.022 1118.556,223.661 1122.072,214.936 L1135.744,181.147 C1137.565,176.722 1138.478,173.011 1138.478,170.014 C1138.478,166.499 1136.751,163.441 1133.302,160.835 ZM964.454,227.046 L1001.369,227.046 C1017.903,227.046 1026.173,232.841 1026.173,244.428 C1026.173,252.241 1023.210,258.393 1017.286,262.885 C1011.360,267.378 1003.322,269.624 993.165,269.624 L936.525,269.624 C920.247,269.624 906.999,263.896 896.779,252.436 C886.555,240.980 881.447,226.136 881.447,207.905 C881.447,183.558 889.845,162.397 906.642,144.428 C923.439,126.460 943.165,117.475 965.822,117.475 C981.184,117.475 993.684,121.772 1003.322,130.366 C1012.956,138.960 1017.775,150.160 1017.775,163.960 C1017.775,173.597 1015.364,181.507 1010.548,187.690 C1005.729,193.876 999.544,196.967 991.994,196.967 C980.012,196.967 974.025,191.371 974.025,180.171 C974.025,178.480 974.025,177.046 974.025,175.874 C974.153,174.442 974.220,173.075 974.220,171.772 C974.220,162.660 969.728,158.100 960.744,158.100 C952.278,158.100 944.563,162.592 937.599,171.577 C930.632,180.561 927.150,190.589 927.150,201.655 C927.150,210.902 929.982,217.445 935.646,221.284 C941.310,225.126 950.911,227.046 964.454,227.046 ZM823.244,227.046 L847.853,227.046 C864.387,227.046 872.658,232.777 872.658,244.233 C872.658,252.308 869.758,258.558 863.966,262.983 C858.171,267.411 850.065,269.624 839.650,269.624 L801.369,269.624 C788.347,269.624 777.702,265.132 769.435,256.147 C761.165,247.163 757.033,235.511 757.033,221.186 C757.033,212.074 759.245,203.217 763.673,194.624 C768.098,186.030 775.911,175.483 787.111,162.983 L766.798,162.983 L760.158,179.389 C754.167,193.974 746.354,201.264 736.720,201.264 C730.861,201.264 725.978,199.507 722.072,195.991 C718.165,192.475 716.212,188.114 716.212,182.905 C716.212,179.911 717.644,174.833 720.509,167.671 L742.579,113.178 C747.917,100.028 755.470,93.452 765.236,93.452 C774.870,93.452 780.794,98.011 783.009,107.124 L784.572,113.178 C785.353,116.303 786.525,118.257 788.087,119.038 C789.650,119.819 793.489,120.210 799.611,120.210 L845.314,120.210 C862.370,120.210 870.900,126.200 870.900,138.178 C870.900,154.716 860.090,162.983 838.478,162.983 L836.329,164.936 C815.626,184.730 805.275,200.028 805.275,210.835 C805.275,221.644 811.262,227.046 823.244,227.046 ZM627.931,227.046 L685.939,227.046 C702.345,227.046 710.548,232.841 710.548,244.428 C710.548,252.372 707.649,258.558 701.857,262.983 C696.062,267.411 687.956,269.624 677.540,269.624 L622.267,269.624 C601.692,269.624 586.036,264.546 575.294,254.389 C564.552,244.233 559.181,229.389 559.181,209.858 C559.181,184.730 567.677,163.050 584.669,144.819 C601.661,126.591 621.876,117.475 645.314,117.475 C662.370,117.475 676.076,121.937 686.427,130.854 C696.779,139.774 701.954,151.527 701.954,166.108 C701.954,183.686 694.792,196.708 680.470,205.171 C672.526,209.989 660.676,212.397 644.923,212.397 L605.861,212.397 C605.861,222.163 613.215,227.046 627.931,227.046 ZM636.720,176.850 C650.651,176.850 657.423,173.792 657.033,167.671 C656.642,160.771 652.150,157.319 643.556,157.319 C631.575,157.319 622.136,163.831 615.236,176.850 L636.720,176.850 ZM468.947,227.046 L526.954,227.046 C543.361,227.046 551.564,232.841 551.564,244.428 C551.564,252.372 548.665,258.558 542.872,262.983 C537.077,267.411 528.972,269.624 518.556,269.624 L463.283,269.624 C442.708,269.624 427.052,264.546 416.310,254.389 C405.568,244.233 400.197,229.389 400.197,209.858 C400.197,184.730 408.693,163.050 425.685,144.819 C442.677,126.591 462.892,117.475 486.329,117.475 C503.386,117.475 517.091,121.937 527.443,130.854 C537.794,139.774 542.970,151.527 542.970,166.108 C542.970,183.686 535.808,196.708 521.486,205.171 C513.542,209.989 501.692,212.397 485.939,212.397 L446.876,212.397 C446.876,222.163 454.231,227.046 468.947,227.046 ZM477.736,176.850 C491.667,176.850 498.439,173.792 498.048,167.671 C497.658,160.771 493.165,157.319 484.572,157.319 C472.590,157.319 463.151,163.831 456.251,176.850 L477.736,176.850 ZM342.579,147.163 C366.408,158.753 378.322,178.675 378.322,206.928 C378.322,225.028 373.405,242.768 363.576,260.151 C353.743,277.534 340.755,291.432 324.611,301.850 C302.864,315.913 270.051,322.944 226.173,322.944 L197.462,322.944 L195.119,328.413 C186.003,348.594 178.840,362.852 173.634,371.186 C168.425,379.518 161.720,387.461 153.517,395.014 C131.770,414.936 106.965,424.897 79.103,424.897 C56.315,424.897 37.471,418.125 22.560,404.585 C7.652,391.041 0.197,373.789 0.197,352.827 C0.197,339.414 3.389,326.948 9.767,315.425 C16.148,303.901 24.806,294.947 35.744,288.569 C49.934,280.366 69.206,276.264 93.556,276.264 L161.720,276.264 L253.908,49.702 L231.837,49.702 L226.564,49.702 C211.979,49.702 204.689,43.452 204.689,30.952 C204.689,23.139 207.683,16.532 213.673,11.128 C219.661,5.726 226.954,3.022 235.548,3.022 L240.822,3.022 L320.119,3.022 C345.769,3.022 365.559,8.656 379.494,19.917 C393.425,31.181 400.392,47.230 400.392,68.061 C400.392,86.030 395.149,102.177 384.669,116.499 C374.187,130.824 360.158,141.044 342.579,147.163 ZM91.994,322.944 C66.472,322.944 53.712,332.057 53.712,350.288 C53.712,357.578 56.477,363.764 62.013,368.842 C67.546,373.921 74.284,376.460 82.228,376.460 C94.075,376.460 105.339,371.739 116.017,362.300 C126.692,352.857 135.612,339.741 142.775,322.944 L91.994,322.944 ZM259.767,169.624 L216.603,276.264 L232.423,276.264 C260.286,276.264 281.447,271.446 295.900,261.811 C305.144,255.692 312.663,247.294 318.458,236.616 C324.251,225.941 327.150,215.199 327.150,204.389 C327.150,191.630 323.341,182.646 315.724,177.436 C308.107,172.230 294.856,169.624 275.978,169.624 L259.767,169.624 ZM334.962,51.850 C331.184,50.419 323.372,49.702 311.525,49.702 L308.595,49.702 L278.712,122.944 L290.431,122.749 C308.659,122.749 322.462,118.519 331.837,110.053 C336.784,105.628 340.919,99.897 344.240,92.866 C347.560,85.835 349.220,79.325 349.220,73.335 C349.220,62.528 344.465,55.366 334.962,51.850 Z"/>
</svg>